PathFileType	4	(X/Y/Z)	C:/Users/beibeiliu/ov580/test_trc/User2\sequence.29_training_dense_left.trc
DataRate	CameraRate	NumFrames	NumMarkers	Units	OrigDataRate	OrigDataStartFrame	OrigNumFrames
120	120	15	19	mm	120	27	78
Frame#	Time	ThumbCMC			ThumbMCP			ThumbIP			ThumbTip			IndexMCP			IndexPIP			IndexTip			MiddleMCP			MiddlePIP			MiddleTip			RingMCP			RingPIP			RingTip			PinkyMCP			PinkyPIP			PinkyTip			BackHand1			BackHand2			BackHand3	
		X0	Y0	Z0	X1	Y1	Z1	X2	Y2	Z2	X3	Y3	Z3	X4	Y4	Z4	X5	Y5	Z5	X6	Y6	Z6	X7	Y7	Z7	X8	Y8	Z8	X9	Y9	Z9	X10	Y10	Z10	X11	Y11	Z11	X12	Y12	Z12	X13	Y13	Z13	X14	Y14	Z14	X15	Y15	Z15	X16	Y16	Z16	X17	Y17	Z17	X18	Y18	Z18	
26	0.216667	-264.876	17.0633	-24.6382	-262.895	17.8248	-64.4445	-271.514	22.5208	-96.9116	-281.716	22.8371	-120.132	-299.755	66.1762	-66.8201	-297.439	57.9658	-96.9419	-287.656	42.2917	-119.175	-326.353	54.8074	-75.786	-313.896	50.8027	-106.207	-300.394	32.8255	-132.013	-338.524	42.1474	-78.6846	-327.719	35.7877	-108.247	-304.568	19.7513	-127.132	-349.838	18.2907	-72.6701	-335.992	19.7232	-101.94	-322	14.2876	-122.575	-339.194	15.9735	-17.7012	-327.264	-6.77432	10.7134	-303.054	27.3037	0.901401	
27	0.225	-260.94	25.5629	-18.439	-253.706	28.672	-58.2318	-260.558	43.1535	-93.9744	-268.735	48.5204	-117.63	-280.087	88.1118	-54.5605	-271.293	83.6388	-87.9452	-272.743	65.182	-110.876	-300.154	88.636	-64.1623	-296.628	83.0762	-98.201	-282.991	62.3723	-126.689	-323.18	77.0251	-67.7187	-312.094	71.3501	-100.079	-298.218	53.991	-119.083	-338.897	58.7328	-65.8378	-325.608	58.7524	-90.8363	-309.767	48.7998	-114.383	-324.342	45.9074	-9.35773	-323.724	18.0003	12.2524	-293.243	46.2469	6.29256	
28	0.233333	-238.116	31.0587	-16.6775	-235.356	30.8469	-52.6015	-238.034	42.7116	-88.07	-246.334	49.5375	-111.089	-247.188	93.9862	-55.2704	-243.072	87.4479	-83.9013	-243.821	65.0524	-112.074	-268.464	95.736	-58.8745	-261.215	89.74	-97.1041	-259.083	69.3834	-121.404	-290.56	88.797	-69.1765	-279.762	82.5415	-98.3217	-268.298	61.4804	-116.632	-308.541	73.9441	-64.1026	-297.957	69.5543	-94.9468	-282.706	56.5825	-114.945	-305.912	62.3945	-10.291	-304.236	32.1299	15.2373	-271.449	53.7298	10.9887	
29	0.241667	-213.686	20.2223	-14.9772	-209.689	17.8794	-53.6619	-206.771	19.8939	-90.4105	-218.194	23.1951	-115.659	-221.617	77.0874	-66.6543	-213.951	64.2032	-95.2138	-212.196	38.5122	-117.071	-243.92	78.467	-76.3525	-235.447	63.4309	-107.494	-229.426	35.057	-130.646	-262.734	70.6364	-80.1225	-254.218	57.3306	-107.259	-245.468	31.1771	-122.444	-280.418	57.822	-73.35	-270.322	47.8937	-103.543	-254.55	29.0861	-117.823	-274.903	54.9148	-14.8447	-277.515	34.1389	9.60293	-243.685	51.488	4.73447	
30	0.25	-195.41	10.0344	-18.4016	-184.949	-4.78847	-54.4876	-190.57	-12.4183	-85.4052	-198.67	-15.7024	-112.837	-197.583	46.3515	-84.3319	-197.553	28.9194	-104.31	-196.446	-2.48227	-121.695	-226.379	44.5986	-87.4671	-219.142	20.6587	-115.904	-214.341	-9.5624	-128.575	-244.978	35.8698	-93.3259	-238.01	12.406	-114.312	-220.671	-14.7776	-118.003	-263.608	24.0607	-83.6231	-254.395	6.5352	-105.004	-234.576	-17.9197	-116.097	-259.542	42.1148	-27.0473	-258.705	26.3424	6.0991	-224.828	43.1282	-6.11603	
31	0.258333	-181.907	2.4029	-15.261	-168.623	-21.0956	-47.3634	-171.468	-34.9169	-76.1513	-170.432	-48.2871	-100.593	-191.774	20.3447	-90.6157	-181.554	-0.720216	-105.501	-175.689	-31.9001	-113.555	-213.108	11.9408	-96.0445	-202.037	-16.2311	-112.789	-189.684	-48.39	-117.95	-236.243	-0.662616	-93.1349	-222.574	-22.5349	-107.977	-201.643	-51.0463	-104.685	-254.018	-12.4825	-80.7911	-237.907	-36.4701	-99.6197	-216.979	-52.7187	-100.022	-249.741	21.9349	-32.662	-246.835	15.1098	3.0325	-213.022	33.468	-14.803	
32	0.266667	-180.973	11.0051	-17.7204	-160.632	-12.9083	-40.0192	-150.419	-34.8865	-66.815	-148.504	-51.4687	-85.0454	-191.346	12.5136	-90.7419	-174.409	-13.4284	-103.309	-159.452	-41.2201	-102.399	-210.934	-7.99855	-94.184	-189.086	-33.7593	-106.798	-165.215	-59.6146	-101.137	-223.407	-25.0875	-91.6554	-204.201	-47.425	-99.3295	-176.714	-63.7492	-87.5732	-237.756	-43.7181	-76.5041	-211.353	-58.3477	-87.0362	-183.214	-68.3684	-79.7892	-250.883	1.6148	-38.6142	-248.019	5.2209	-1.45616	-225.168	24.8616	-21.7748	
33	0.275	-189.495	27.4433	-21.2115	-159.367	7.6413	-40.0378	-139.971	-14.8534	-63.5912	-130.095	-30.1576	-73.9003	-196.105	4.04417	-93.3732	-169.595	-11.6865	-101.357	-142.919	-27.8799	-93.449	-200.901	-17.6178	-94.5142	-172.314	-33.8919	-99.8634	-142.551	-46.2497	-90.4954	-205.521	-38.9911	-87.4232	-179.661	-50.8337	-88.8567	-147.783	-52.4422	-73.0862	-211.451	-59.4409	-70.6794	-182.104	-61.4136	-73.8296	-155.371	-61.1488	-66.4835	-247.404	-13.698	-41.3305	-252.079	-6.26695	-9.26381	-238.167	19.4118	-30.6368	
34	0.283333	-207.544	36.5106	-25.4342	-169.247	32.6475	-40.2693	-143.888	17.4069	-58.5534	-126.833	2.08201	-71.3629	-197.812	7.95933	-94.6389	-162.638	2.2494	-99.2275	-137.874	-0.838966	-91.7509	-191.174	-15.6891	-93.5274	-156.146	-18.9169	-94.598	-122.903	-15.1214	-82.3171	-188.512	-38.4042	-81.2419	-156.459	-32.7058	-83.6333	-128.594	-21.7159	-67.7234	-189.719	-53.6784	-59.974	-156.567	-45.1665	-66.2134	-133.81	-29.9356	-61.6908	-239.193	-25.9725	-40.5959	-249.872	-17.3291	-6.16609	-245.581	7.84515	-34.6292	
35	0.291667	-224.767	43.1772	-29.4531	-188.31	49.1989	-49.024	-159.901	43.7874	-63.8227	-136.587	34.9407	-74.578	-199.673	13.3444	-98.019	-167.423	25.2035	-102.535	-143.215	31.1098	-95.0105	-183.095	-10.0434	-91.3704	-152.833	5.80107	-94.9796	-124.572	22.5694	-86.8626	-173.276	-25.2985	-78.0017	-145.328	-8.28357	-81.8342	-127.306	13.7454	-71.6203	-166.167	-36.5117	-59.9747	-141.855	-18.2338	-65.2078	-125.804	0.164481	-61.7211	-225.379	-33.2619	-39.4528	-240.976	-25.7919	-6.86222	-245.948	0.236889	-34.5454	
36	0.3	-237.473	40.012	-34.3874	-206.341	54.0001	-55.8338	-178.228	57.4348	-73.0294	-153.187	58.9353	-88.1816	-201.334	10.0041	-97.4687	-179.3	26.0997	-105.67	-154.749	44.8224	-102.327	-184.463	-4.25506	-91.6114	-160.628	17.5758	-100.704	-134.462	40.6396	-95.0537	-168.839	-14.7908	-77.2213	-148.403	5.84762	-85.7008	-133.678	40.4024	-81.7035	-158.156	-18.833	-60.1637	-140.975	1.6265	-69.7706	-125.753	25.7607	-72.1616	-211.319	-32.037	-31.0468	-228.78	-26.6231	-4.13275	-242.393	-7.72281	-33.1124	
37	0.308333	-241.878	31.9494	-34.9973	-217.462	48.8322	-61.4884	-193.94	56.51	-81.46	-172.429	60.1504	-99.7889	-207.705	5.31875	-100.677	-190.361	24.6173	-112.521	-172.868	48.6305	-114.183	-189.845	-8.17941	-91.1617	-169.054	16.539	-106.513	-149.001	43.7672	-107.601	-170.528	-14.217	-79.7782	-155.6	11.9051	-96.1108	-142.368	43.8055	-94.7313	-159.443	-17.9857	-59.0966	-143.499	3.85177	-75.9769	-137.948	25.6771	-88.2797	-210.113	-29.115	-27.7569	-218.857	-27.2926	3.23351	-243.643	-12.9366	-31.3075	
38	0.316667	-247.632	24.7092	-31.8123	-229.637	43.8724	-63.4049	-209.276	47.6588	-91.7746	-190.188	47.317	-106.718	-228.577	-7.68008	-98.7158	-212.93	14.1976	-119.138	-191.573	35.4021	-123.619	-209.896	-16.7941	-96.4631	-188.125	5.57657	-116.207	-167.888	35.6681	-123.081	-187.535	-22.145	-88.5007	-172.55	-1.75326	-106.433	-162.994	29.1231	-111.129	-171.651	-23.0727	-69.7637	-157.266	-6.48023	-88.8498	-149.603	18.5342	-105.701	-210.732	-33.6828	-26.2159	-222.642	-26.9459	2.88422	-249.566	-18.6475	-24.6916	
39	0.325	-255.76	17.9054	-29.9735	-241.349	30.5701	-61.7575	-226.445	31.5533	-98.4764	-210.703	27.5971	-121.532	-247.869	-18.7342	-100.864	-237.361	-4.81615	-120.021	-216.721	19.2609	-133.079	-227.766	-33.0492	-99.7317	-212.32	-12.0385	-124.141	-194.331	12.3582	-133.316	-210.808	-38.2747	-91.6229	-195.804	-20.1607	-114.82	-183.763	11.283	-123.147	-189.922	-38.6135	-77.9553	-180.193	-23.6974	-101.366	-174.586	0.302354	-117.725	-226.003	-42.5355	-26.8719	-225.73	-32.8704	3.95222	-259.117	-22.1459	-18.4217	
40	0.333333	-269.147	15.3798	-32.1064	-256.313	20.6913	-66.4939	-247.715	19.7256	-101.273	-235.64	14.1972	-125.419	-269.771	-32.1552	-97.5738	-260.234	-17.8621	-120.745	-240.329	-0.360322	-135.157	-253.21	-45.8754	-97.42	-240.47	-30.0885	-125.605	-224.364	-0.833146	-139.844	-232.001	-53.9786	-91.9027	-223.224	-39.7623	-118.799	-212.367	-6.40272	-130.266	-214.816	-53.0567	-77.7632	-204.413	-42.1502	-105.827	-202.959	-20.8192	-125.741	-236.876	-53.0311	-28.4844	-236.361	-38.9135	4.4843	-268.726	-29.8276	-14.5251	
